# xmcd
#
# Track frame offsets: 
#        150
#        16467
#        34499
#        52565
#        68435
#        85681
#        103715
#        122171
#        140840
#        157007
#        176477
#        194336
#        211176
#        231545
#        250530
#        267904
#        285592
#        303511
#
# Disc length: 4314 seconds
#
# Revision: 0
# Processed by: cddbd v1.5.2PL0 Copyright (c) Steve Scherf et al.
# Submitted via: ExactAudioCopyFreeDBPlugin 1.0
#
DISCID=fa10d812
DTITLE=จินตหรา พูนลาภ - ลูกทุ่ง ออนซอน
DYEAR=1900
DGENRE=
TTITLE0=น้ำตาสาววาริน
TTITLE1=ผู้หนีช้ำ
TTITLE2=นัดรอบ่พ้ออ้าย
TTITLE3=ถ้วยป่นหลุดมือ
TTITLE4=ลำดวนตำใจ
TTITLE5=สาวน้ำพองสะอื้น
TTITLE6=สาวชุมแพแพ้รัก
TTITLE7=สาวทุ่งดอกจาน
TTITLE8=ผู้บ่าวเปลี๋ยนไป
TTITLE9=คิดฮอดตลอดเวลา
TTITLE10=คอยรักจากเยอรมัน
TTITLE11=คนนำทางใจ
TTITLE12=บอกฮักผ่าน ดี เจ
TTITLE13=สิ้นหวังที่วังตะไคร้
TTITLE14=วานเพื่อนเขียนจดหมาย
TTITLE15=ถูกหลอกออกโรงเรียน
TTITLE16=รักเรามีกรรม
TTITLE17=เสียงแคนแฟนเก่า
EXTD=
EXTT0=
EXTT1=
EXTT2=
EXTT3=
EXTT4=
EXTT5=
EXTT6=
EXTT7=
EXTT8=
EXTT9=
EXTT10=
EXTT11=
EXTT12=
EXTT13=
EXTT14=
EXTT15=
EXTT16=
EXTT17=
PLAYORDER=
